HIERARCHY
ROOT hip
{
  OFFSET 0 0 0
  CHANNELS 6 Xposition Yposition Zposition Zrotation Yrotation Xrotation
  JOINT abdomen
  {
    OFFSET 0 20.6881 -0.73152
    CHANNELS 3 Zrotation Xrotation Yrotation
    JOINT chest
    {
      OFFSET 0 11.7043 -0.48768
      CHANNELS 3 Zrotation Xrotation Yrotation
      JOINT neck
      {
        OFFSET 0 22.1894 -2.19456
        CHANNELS 3 Zrotation Xrotation Yrotation
        JOINT head
        {
          OFFSET -0.24384 7.07133 1.2192
          CHANNELS 3 Zrotation Xrotation Yrotation
          JOINT leftEye
          {
            OFFSET 4.14528 8.04674 8.04672
            CHANNELS 3 Zrotation Xrotation Yrotation
            End Site
            {
              OFFSET 1 0 0
            }
          }
          JOINT rightEye
          {
            OFFSET -3.6576 8.04674 8.04672
            CHANNELS 3 Zrotation Xrotation Yrotation
            End Site
            {
              OFFSET 1 0 0
            }
          }
        }
      }
      JOINT rCollar
      {
        OFFSET -2.68224 19.2634 -4.8768
        CHANNELS 3 Zrotation Xrotation Yrotation
        JOINT rShldr
        {
          OFFSET -8.77824 -1.95073 1.46304
          CHANNELS 3 Zrotation Xrotation Yrotation
          JOINT rForeArm
          {
            OFFSET -28.1742 -1.7115 0.48768
            CHANNELS 3 Zrotation Xrotation Yrotation
            JOINT rHand
            {
              OFFSET -22.5879 0.773209 7.07136
              CHANNELS 3 Zrotation Xrotation Yrotation
              JOINT rThumb1
              {
                OFFSET -1.2192 -0.487915 3.41376
                CHANNELS 3 Zrotation Xrotation Yrotation
                JOINT rThumb2
                {
                  OFFSET -3.37035 -0.52449 3.41376
                  CHANNELS 3 Zrotation Xrotation Yrotation
                  End Site
                  {
                    OFFSET -1.78271 -1.18214 1.43049
                  }
                }
              }
              JOINT rIndex1
              {
                OFFSET -7.75947 0.938293 5.60832
                CHANNELS 3 Zrotation Xrotation Yrotation
                JOINT rIndex2
                {
                  OFFSET -2.54057 -0.884171 1.56538
                  CHANNELS 3 Zrotation Xrotation Yrotation
                  End Site
                  {
                    OFFSET -1.62519 -0.234802 1.16502
                  }
                }
              }
              JOINT rMid1
              {
                OFFSET -8.24714 1.18213 3.41376
                CHANNELS 3 Zrotation Xrotation Yrotation
                JOINT rMid2
                {
                  OFFSET -3.10165 -0.590103 1.0647
                  CHANNELS 3 Zrotation Xrotation Yrotation
                  End Site
                  {
                    OFFSET -2.48547 -0.328903 0.83742
                  }
                }
              }
              JOINT rRing1
              {
                OFFSET -8.82822 0.546677 1.51678
                CHANNELS 3 Zrotation Xrotation Yrotation
                JOINT rRing2
                {
                  OFFSET -2.60934 -0.819778 -0.0198488
                  CHANNELS 3 Zrotation Xrotation Yrotation
                  End Site
                  {
                    OFFSET -2.33842 -0.294052 0.168128
                  }
                }
              }
              JOINT rPinky1
              {
                OFFSET -8.27202 -0.0477905 -0.4584
                CHANNELS 3 Zrotation Xrotation Yrotation
                JOINT rPinky2
                {
                  OFFSET -1.82734 -0.647385 -0.700984
                  CHANNELS 3 Zrotation Xrotation Yrotation
                  End Site
                  {
                    OFFSET -1.69225 -0.51767 -0.607171
                  }
                }
              }
            }
          }
        }
      }
      JOINT lCollar
      {
        OFFSET 2.68224 19.2634 -4.8768
        CHANNELS 3 Zrotation Xrotation Yrotation
        JOINT lShldr
        {
          OFFSET 8.77824 -1.95073 1.46304
          CHANNELS 3 Zrotation Xrotation Yrotation
          JOINT lForeArm
          {
            OFFSET 28.1742 -1.7115 0.48768
            CHANNELS 3 Zrotation Xrotation Yrotation
            JOINT lHand
            {
              OFFSET 22.5879 0.773209 7.07136
              CHANNELS 3 Zrotation Xrotation Yrotation
              JOINT lThumb1
              {
                OFFSET 1.2192 -0.487915 3.41376
                CHANNELS 3 Zrotation Xrotation Yrotation
                JOINT lThumb2
                {
                  OFFSET 3.37035 -0.52449 3.41376
                  CHANNELS 3 Zrotation Xrotation Yrotation
                  End Site
                  {
                    OFFSET 1.78271 -1.18214 1.43049
                  }
                }
              }
              JOINT lIndex1
              {
                OFFSET 7.75947 0.938293 5.60832
                CHANNELS 3 Zrotation Xrotation Yrotation
                JOINT lIndex2
                {
                  OFFSET 2.54057 -0.884171 1.56538
                  CHANNELS 3 Zrotation Xrotation Yrotation
                  End Site
                  {
                    OFFSET 1.62519 -0.234802 1.16502
                  }
                }
              }
              JOINT lMid1
              {
                OFFSET 8.24714 1.18213 3.41376
                CHANNELS 3 Zrotation Xrotation Yrotation
                JOINT lMid2
                {
                  OFFSET 3.10165 -0.590103 1.0647
                  CHANNELS 3 Zrotation Xrotation Yrotation
                  End Site
                  {
                    OFFSET 2.48547 -0.328903 0.83742
                  }
                }
              }
              JOINT lRing1
              {
                OFFSET 8.82822 0.546677 1.51678
                CHANNELS 3 Zrotation Xrotation Yrotation
                JOINT lRing2
                {
                  OFFSET 2.60934 -0.819778 -0.0198488
                  CHANNELS 3 Zrotation Xrotation Yrotation
                  End Site
                  {
                    OFFSET 2.33842 -0.294052 0.168128
                  }
                }
              }
              JOINT lPinky1
              {
                OFFSET 8.27202 -0.0477905 -0.4584
                CHANNELS 3 Zrotation Xrotation Yrotation
                JOINT lPinky2
                {
                  OFFSET 1.82734 -0.647385 -0.700984
                  CHANNELS 3 Zrotation Xrotation Yrotation
                  End Site
                  {
                    OFFSET 1.69225 -0.51767 -0.607171
                  }
                }
              }
            }
          }
        }
      }
    }
  }
  JOINT rButtock
  {
    OFFSET -8.77824 4.35084 1.2192
    CHANNELS 3 Zrotation Xrotation Yrotation
    JOINT rThigh
    {
      OFFSET 0 -1.70687 -2.19456
      CHANNELS 3 Zrotation Xrotation Yrotation
      JOINT rShin
      {
        OFFSET 0 -36.8199 0.73152
        CHANNELS 3 Zrotation Xrotation Yrotation
        JOINT rFoot
        {
          OFFSET 0.73152 -45.1104 -5.12064
          CHANNELS 3 Zrotation Xrotation Yrotation
          End Site
          {
            OFFSET -1.1221 -3.69964 12.103
          }
        }
      }
    }
  }
  JOINT lButtock
  {
    OFFSET 8.77824 4.35084 1.2192
    CHANNELS 3 Zrotation Xrotation Yrotation
    JOINT lThigh
    {
      OFFSET 0 -1.70687 -2.19456
      CHANNELS 3 Zrotation Xrotation Yrotation
      JOINT lShin
      {
        OFFSET 0 -36.8199 0.73152
        CHANNELS 3 Zrotation Xrotation Yrotation
        JOINT lFoot
        {
          OFFSET -0.73152 -45.1104 -5.12064
          CHANNELS 3 Zrotation Xrotation Yrotation
          End Site
          {
            OFFSET 1.1221 -3.69964 12.103
          }
        }
      }
    }
  }
}
MOTION
Frames:	5
Frame Time:	0.00833333
52.2928 85.1388 188.1 0.0 0.0 0.0 0.41059 -0.00336424 0.0117806 0.113459 -0.0053952 0.0196593 1.32386e-15 -1.59028e-15 -4.34841e-17 3.85767e-15 3.18055e-15 -1.2424e-16 -0.0 0.0 0.0 -0.0 0.0 0.0 6.44792e-16 8.15328e-18 9.93923e-17 1.62762e-14 1.2424e-17 3.97569e-16 2.37548e-13 -6.34123e-14 9.54166e-15 2.68421e-12 9.69324e-14 -9.85972e-14 6.3377e-12 7.44947e-14 -1.87653e-13 1.09467e-11 1.30403e-13 -3.29187e-13 6.34282e-12 7.83212e-14 -1.97194e-13 7.73091 5.47488 0.417314 6.3385e-12 7.50412e-14 -1.87653e-13 2.90554 0.965183 0.102902 6.34864e-12 7.50412e-14 -1.89243e-13 10.2786 0.731801 0.0259123 6.34063e-12 7.31528e-14 -1.84472e-13 2.22167 -0.733487 -0.20892 6.47351e-16 8.15328e-18 -1.49089e-16 1.07597e-14 -3.91357e-16 -1.19271e-15 2.33075e-13 7.25564e-14 -2.54444e-14 2.68779e-12 -5.81694e-14 -5.40694e-14 6.33816e-12 3.69244e-14 -2.00375e-13 1.09459e-11 6.36111e-14 -3.29983e-13 6.3297e-12 4.29375e-14 -1.81292e-13 -7.73091 5.47488 -0.417314 6.3374e-12 3.72721e-14 -1.97194e-13 -2.90554 0.965183 -0.102902 6.32567e-12 3.74709e-14 -1.92424e-13 -10.2786 0.731801 -0.0259123 6.34183e-12 3.61788e-14 -2.00375e-13 -2.22167 -0.733487 0.20892 -2.03217e-16 0.0 -3.88251e-19 0.770606 -4.17183 -0.0656816 -0.00265488 2.00555 -0.0182704 -0.461831 2.16687 0.096101 2.03217e-16 0.0 3.88251e-19 -0.143234 -2.55995 0.0260684 0.0071632 -0.91409 0.0621718 0.453773 3.47457 -0.121225
51.5822 83.6814 181.551 173.538 -1.3203 -157.412 -0.984162 -8.16568 -0.0490651 0.673255 3.62446 -0.0873156 0.0489783 3.57163 -0.515093 0.726108 -5.04207 -1.05325 -0.0 0.0 0.0 -0.0 0.0 0.0 -2.2497e-15 -1.06817e-13 1.69328e-14 23.5502 1.34379 -0.211481 -4.20714 -1.90904 6.5739 0.000265316 0.369656 0.0519481 1.30812e-10 -3.09835e-10 1.25205e-09 2.29095e-10 -5.35112e-10 2.16522e-09 1.30817e-10 -3.09833e-10 1.25204e-09 7.73091 5.47488 0.417314 1.30812e-10 -3.09836e-10 1.25205e-09 2.90554 0.965183 0.102902 1.30822e-10 -3.09835e-10 1.25205e-09 10.2786 0.731801 0.0259123 1.30814e-10 -3.09836e-10 1.25205e-09 2.22167 -0.733487 -0.20892 -2.26582e-15 -1.06815e-13 1.66855e-14 -21.2222 5.0578 -0.849959 4.20282 -1.90617 -6.56827 0.000197793 -0.0549065 0.00771365 1.54382e-11 -9.50421e-10 -9.27532e-10 2.43203e-11 -1.64403e-09 -1.60379e-09 1.54319e-11 -9.50416e-10 -9.27514e-10 -7.73091 5.47488 -0.417314 1.54385e-11 -9.50421e-10 -9.27531e-10 -2.90554 0.965183 -0.102902 1.54268e-11 -9.50421e-10 -9.27527e-10 -10.2786 0.731801 -0.0259123 1.54424e-11 -9.50422e-10 -9.27534e-10 -2.22167 -0.733487 0.20892 -2.03217e-16 0.0 -3.88251e-19 0.428405 -11.0966 2.67084 0.0112593 4.56948 0.0819237 -0.94823 -5.00801 -3.7461 2.03217e-16 0.0 3.88251e-19 0.483508 -9.09674 -2.4631 0.00556281 0.979015 0.0269721 0.486763 1.44706 0.778605
52.8833 83.9073 182.202 179.64 -3.8421 -154.33 -2.48007 -16.7788 -0.121856 1.2714 7.45928 -0.201451 0.151698 7.31105 -1.04864 1.33985 -10.2839 -2.15376 -0.0 0.0 0.0 -0.0 0.0 0.0 -5.51423e-15 -2.25221e-13 3.59769e-14 48.4639 2.76194 -0.435611 -8.18013 -3.84224 13.5442 -0.000195212 0.76944 0.108138 2.65731e-10 -6.54827e-10 2.65346e-09 4.65644e-10 -1.13094e-09 4.58876e-09 2.65735e-10 -6.54827e-10 2.65346e-09 7.73091 5.47488 0.417314 2.6573e-10 -6.54829e-10 2.65346e-09 2.90554 0.965183 0.102902 2.6574e-10 -6.54828e-10 2.65346e-09 10.2786 0.731801 0.0259123 2.65731e-10 -6.54827e-10 2.65347e-09 2.22167 -0.733487 -0.20892 -5.54976e-15 -2.25218e-13 3.57315e-14 -43.4823 10.3568 -1.76571 8.16687 -3.83267 -13.5242 0.000562586 -0.149471 0.0209989 1.96316e-11 -2.02434e-09 -1.96452e-09 2.88968e-11 -3.50174e-09 -3.39685e-09 1.96274e-11 -2.02433e-09 -1.96451e-09 -7.73091 5.47488 -0.417314 1.9633e-11 -2.02434e-09 -1.96452e-09 -2.90554 0.965183 -0.102902 1.96212e-11 -2.02434e-09 -1.96452e-09 -10.2786 0.731801 -0.0259123 1.96363e-11 -2.02434e-09 -1.96453e-09 -2.22167 -0.733487 0.20892 -2.03217e-16 0.0 -3.88251e-19 0.82366 -18.3646 5.79602 0.0163498 7.32144 0.190891 -2.55495 -12.6073 -8.01405 2.03217e-16 0.0 3.88251e-19 0.500801 -15.9485 -5.23362 0.00641652 2.9797 -0.0102342 0.590652 -0.693986 1.72561
52.9026 83.8576 182.276 179.716 -3.8629 -153.985 -3.82986 -24.4902 -0.185998 1.83412 10.884 -0.306251 0.342473 10.7114 -1.56963 1.60559 -15.1054 -3.26028 -0.0 0.0 0.0 -0.0 0.0 0.0 -8.03869e-15 -3.20467e-13 5.05996e-14 70.6803 4.03116 -0.635843 -11.3311 -5.42616 19.8031 -0.00121529 1.10896 0.15587 3.79761e-10 -9.29654e-10 3.75652e-09 6.65393e-10 -1.6056e-09 6.49632e-09 3.79766e-10 -9.29656e-10 3.75652e-09 7.73091 5.47488 0.417314 3.7976e-10 -9.29657e-10 3.75653e-09 2.90554 0.965183 0.102902 3.79769e-10 -9.29656e-10 3.75652e-09 10.2786 0.731801 0.0259123 3.79759e-10 -9.29654e-10 3.75653e-09 2.22167 -0.733487 -0.20892 -8.09216e-15 -3.20462e-13 5.03546e-14 -63.2026 15.1598 -2.63159 11.3211 -5.41852 -19.7859 0.000637731 -0.16472 0.023141 3.36384e-11 -2.85134e-09 -2.7822e-09 5.10693e-11 -4.93223e-09 -4.81072e-09 3.36362e-11 -2.85133e-09 -2.78218e-09 -7.73091 5.47488 -0.417314 3.36407e-11 -2.85134e-09 -2.7822e-09 -2.90554 0.965183 -0.102902 3.36289e-11 -2.85134e-09 -2.7822e-09 -10.2786 0.731801 -0.0259123 3.36436e-11 -2.85134e-09 -2.7822e-09 -2.22167 -0.733487 0.20892 -2.03217e-16 0.0 -3.88251e-19 1.89834 -24.7223 8.80632 0.011841 9.69723 0.285589 -4.921 -18.9933 -12.0526 2.03217e-16 0.0 3.88251e-19 -0.0788886 -22.0033 -7.92925 0.00934806 4.76522 -0.0435738 0.743755 -2.60495 2.57974
52.9146 83.8186 182.34 179.737 -3.8158 -153.675 -4.7665 -29.9477 -0.21131 2.27919 13.2837 -0.382958 0.628961 13.2667 -2.03924 1.35594 -18.8909 -4.30411 -0.0 0.0 0.0 -0.0 0.0 0.0 -8.71298e-15 -3.57815e-13 5.41688e-14 86.1322 4.92829 -0.775009 -13.3252 -6.42256 24.2059 -0.00206627 1.29784 0.182431 4.4157e-10 -1.02907e-09 4.1137e-09 7.73145e-10 -1.7773e-09 7.1139e-09 4.41575e-10 -1.02907e-09 4.1137e-09 7.73091 5.47488 0.417314 4.41569e-10 -1.02907e-09 4.11371e-09 2.90554 0.965183 0.102902 4.41577e-10 -1.02907e-09 4.1137e-09 10.2786 0.731801 0.0259123 4.41567e-10 -1.02907e-09 4.11371e-09 2.22167 -0.733487 -0.20892 -8.78067e-15 -3.5781e-13 5.39203e-14 -76.8936 18.7348 -3.29981 13.3404 -6.43431 -24.2361 4.11852e-07 0.01832 -0.0025747 7.21787e-11 -3.06105e-09 -3.05157e-09 1.17232e-10 -5.29465e-09 -5.27663e-09 7.21779e-11 -3.06105e-09 -3.05155e-09 -7.73091 5.47488 -0.417314 7.21815e-11 -3.06105e-09 -3.05157e-09 -2.90554 0.965183 -0.102902 7.21701e-11 -3.06106e-09 -3.05157e-09 -10.2786 0.731801 -0.0259123 7.21841e-11 -3.06106e-09 -3.05157e-09 -2.22167 -0.733487 0.20892 -2.03217e-16 0.0 -3.88251e-19 3.03612 -29.0263 10.9079 0.00425487 11.1327 0.341364 -6.88236 -22.7352 -14.8309 2.03217e-16 0.0 3.88251e-19 -0.83794 -26.2205 -9.9956 0.0125507 6.01287 -0.0670304 0.886688 -3.94426 3.19738
